<?xml version="1.0" encoding="utf-8"?>
<!-- Svg Vector Icons : http://www.onlinewebfonts.com/icon -->
<!DOCTYPE svg PUBLIC "-//W3C//DTD SVG 1.1//EN" "http://www.w3.org/Graphics/SVG/1.1/DTD/svg11.dtd">
<svg version="1.1" xmlns="http://www.w3.org/2000/svg" xmlns:xlink="http://www.w3.org/1999/xlink" x="0px" y="0px" viewBox="0 0 1000 1000" enable-background="new 0 0 1000 1000" xml:space="preserve">
<metadata> Svg Vector Icons : http://www.onlinewebfonts.com/icon </metadata>
<g><g transform="translate(0.000000,511.000000) scale(0.100000,-0.100000)"><path d="M222.6,4999.6c-22.5-10.2-59.3-38.8-81.8-63.4c-40.9-45-40.9-73.6-40.9-4827.5v-4782.5l67.4-59.3l65.4-59.3l4772.3,4.1l4772.3,6.1l55.2,57.2l57.2,55.2l6.1,4772.3l4.1,4772.3l-59.3,65.4l-59.3,67.4l-4760,4.1C2405.4,5013.9,245.1,5007.8,222.6,4999.6z M9491.2,3996.1v-613.1H4994.9H498.5v613.1v613.1h4496.4h4496.3V3996.1z M5393.4,2406c519.1-143.1,911.5-461.9,1113.9-911.5c235-523.2,161.5-1220.2-183.9-1729.1c-198.3-290.2-617.2-564.1-778.7-506.9c-118.6,40.9-130.8,73.6-141,423.1c-10.2,286.1-16.3,331.1-65.4,433.3c-75.6,167.6-151.2,212.5-343.3,212.5s-267.7-45-343.4-212.5c-49.1-104.2-55.2-145.1-65.4-445.6c-10.2-310.6-12.3-333.1-57.2-380.1c-67.5-71.5-134.9-83.8-249.4-45C3872.8-620.8,3460-99.7,3337.4,433.7C3225,916.1,3368,1498.6,3697.1,1895.1c226.9,275.9,539.6,459.9,909.5,539.6C4788.5,2473.5,5203.4,2457.1,5393.4,2406z M8001.3-1581.4c83.8-83.8,83.8-206.4,0-290.2l-59.3-59.3H4994.9H2047.7l-59.3,59.3c-47,47-59.3,77.7-59.3,145.1s12.3,98.1,59.3,145.1l59.3,59.3h2947.2H7942L8001.3-1581.4z M8001.3-2398.9c83.8-83.8,83.8-206.4,0-290.2l-59.3-59.3H4994.9H2047.7l-59.3,59.3c-47,47-59.3,77.7-59.3,145.1s12.3,98.1,59.3,145.1l59.3,59.3h2947.2H7942L8001.3-2398.9z M6775-3216.5c47-47,59.3-77.7,59.3-145.1s-12.3-98.1-59.3-145.1l-59.3-59.3H4994.9H3274l-59.3,59.3c-47,47-59.3,77.7-59.3,145.1s12.3,98.1,59.3,145.1l59.3,59.3h1720.9h1720.9L6775-3216.5z"/><path d="M3590.8,4341.5c-87.9-26.6-149.2-116.5-149.2-222.8c0-69.5,12.3-98.1,69.5-155.3c57.2-57.2,85.8-69.5,155.3-69.5c116.5,0,224.8,102.2,224.8,212.6C3891.2,4280.2,3752.3,4388.5,3590.8,4341.5z"/><path d="M1359,4290.4c-214.6-179.8,36.8-504.8,278-355.6c85.8,51.1,126.7,173.7,87.9,265.7C1663.5,4347.6,1479.6,4392.6,1359,4290.4z"/><path d="M2427.9,4306.7c-61.3-49.1-89.9-112.4-89.9-198.3c0-106.3,108.3-214.6,214.6-214.6c149.2,0,235,89.9,235,247.3c0,124.7-85.8,202.3-218.7,202.3C2507.6,4343.5,2454.5,4329.2,2427.9,4306.7z"/><path d="M4759.9,2034c-576.4-79.7-979-529.3-1042.3-1165c-32.7-329,106.3-707.1,361.8-987.1l96.1-106.3l2,96.1c2,218.7,87.9,466,210.5,602.9l73.6,79.7l-57.2,71.5c-318.8,386.3-192.1,934,263.6,1150.7c114.5,55.2,155.3,63.3,296.4,61.3c206.4-2.1,349.5-55.2,494.6-181.9c280-245.3,329-658.1,118.5-970.8l-71.5-106.3l83.8-92c128.8-139,222.8-390.4,222.8-592.7v-75.6l73.6,71.5c102.2,98.1,200.3,267.7,265.7,457.8c65.4,196.2,89.9,558,49.1,752.1C6078.1,1698.9,5418,2126,4759.9,2034z"/></g></g>
</svg>